<?xml version="1.0" encoding="UTF-8"?>
<!DOCTYPE svg PUBLIC "-//W3C//DTD SVG 1.1//EN" "http://www.w3.org/Graphics/SVG/1.1/DTD/svg11.dtd">
<!-- Creator: CorelDRAW -->
<svg xmlns="http://www.w3.org/2000/svg" xml:space="preserve" width="65px" height="65px" style="shape-rendering:geometricPrecision; text-rendering:geometricPrecision; image-rendering:optimizeQuality; fill-rule:evenodd; clip-rule:evenodd"
viewBox="0 0 99.125 99.125"
 xmlns:xlink="http://www.w3.org/1999/xlink">
 <defs>
  <style type="text/css">
   <![CDATA[
    .fil0 {fill:white}
    .fil1 {fill:#42929D;fill-rule:nonzero}
   ]]>
  </style>
 </defs>
 <g id="Capa_x0020_1">
  <metadata id="CorelCorpID_0Corel-Layer"/>
  <circle class="fil0" cx="49.5625" cy="49.5625" r="49.5625"/>
  <g>
   <path class="fil1" d="M55.5666 82.0255l4.64798 -4.64798 0.116498 0.122472 0.10903 0.126953 0.101563 0.13106 0.0940947 0.135168 0.0862534 0.138155 0.079159 0.141889 0.0713178 0.144503 0.06385 0.147116 0.0563821 0.149357 0.0489143 0.151597 0.0414465 0.153091 0.0339786 0.154957 0.0261374 0.155704 0.0186696 0.156824 0.0115751 0.157571 0.00373392 0.157571 -0.00373392 0.157571 -0.0115751 0.157571 -0.0186696 0.156824 -0.0261374 0.155704 -0.0339786 0.154957 -0.0414465 0.153091 -0.0489143 0.151597 -0.0563821 0.149357 -0.06385 0.147116 -0.0713178 0.144503 -0.079159 0.141889 -0.0862534 0.138155 -0.0940947 0.135168 -0.101563 0.13106 -0.10903 0.126953 -0.116498 0.122472 -0.122472 0.116498 -0.126953 0.10903 -0.13106 0.101563 -0.135168 0.0940947 -0.138155 0.0862534 -0.141889 0.079159 -0.144503 0.0713178 -0.147116 0.06385 -0.149357 0.0563821 -0.151597 0.0489143 -0.153091 0.0414465 -0.154957 0.0339786 -0.155704 0.0261374 -0.156824 0.0186696 -0.157571 0.0115751 -0.157571 0.00373392 -0.157571 -0.00373392 -0.157571 -0.0115751 -0.156824 -0.0186696 -0.155704 -0.0261374 -0.154957 -0.0339786 -0.153091 -0.0414465 -0.151597 -0.0489143 -0.149357 -0.0563821 -0.147116 -0.06385 -0.144503 -0.0713178 -0.141889 -0.079159 -0.138155 -0.0862534 -0.135168 -0.0940947 -0.13106 -0.101563 -0.126953 -0.10903 -0.122472 -0.116498zm-30.7876 -35.4349l4.64798 0 30.7876 30.7869 -4.64798 4.64798 -30.7876 -30.7869 0 -4.64798zm4.64798 0l-4.64798 4.64798 -0.116498 -0.122472 -0.10903 -0.126953 -0.101563 -0.13106 -0.0940947 -0.135168 -0.0862534 -0.138155 -0.079159 -0.141889 -0.0713178 -0.144503 -0.06385 -0.147116 -0.0563821 -0.149357 -0.0489143 -0.151597 -0.0414465 -0.153091 -0.0339786 -0.154957 -0.0261374 -0.155704 -0.0186696 -0.156824 -0.0115751 -0.157571 -0.00373392 -0.157571 0.00373392 -0.157571 0.0115751 -0.157571 0.0186696 -0.156824 0.0261374 -0.155704 0.0339786 -0.154957 0.0414465 -0.153091 0.0489143 -0.151597 0.0563821 -0.149357 0.06385 -0.147116 0.0713178 -0.144503 0.079159 -0.141889 0.0862534 -0.138155 0.0940947 -0.135168 0.101563 -0.13106 0.10903 -0.126953 0.116498 -0.122472 0.122472 -0.116498 0.126953 -0.10903 0.13106 -0.101562 0.135168 -0.0940947 0.138155 -0.0862534 0.141889 -0.079159 0.144503 -0.0713178 0.147116 -0.06385 0.149357 -0.0563821 0.151597 -0.0489143 0.153091 -0.0414465 0.154957 -0.0339786 0.155704 -0.0261374 0.156824 -0.0186696 0.157571 -0.0115751 0.157571 -0.00373392 0.157571 0.00373392 0.157571 0.0115751 0.156824 0.0186696 0.155704 0.0261374 0.154957 0.0339786 0.153091 0.0414465 0.151597 0.0489143 0.149357 0.0563821 0.147116 0.06385 0.144503 0.0713178 0.141889 0.079159 0.138155 0.0862534 0.135168 0.0940947 0.13106 0.101562 0.126953 0.10903 0.122472 0.116498zm30.7876 -26.1393l-30.7876 30.7873 -4.64798 -4.64798 30.7876 -30.7873 4.64798 4.64798zm0 0l-4.64798 -4.64798 0.122472 -0.116498 0.126953 -0.10903 0.13106 -0.101563 0.135168 -0.0940947 0.138155 -0.0862534 0.141889 -0.079159 0.144503 -0.0713178 0.147116 -0.06385 0.149357 -0.0563821 0.151597 -0.0489143 0.153091 -0.0414465 0.154957 -0.0339786 0.155704 -0.0261374 0.156824 -0.0186696 0.157571 -0.0115751 0.157571 -0.00373392 0.157571 0.00373392 0.157571 0.0115751 0.156824 0.0186696 0.155704 0.0261374 0.154957 0.0339786 0.153091 0.0414465 0.151597 0.0489143 0.149357 0.0563821 0.147116 0.06385 0.144503 0.0713178 0.141889 0.079159 0.138155 0.0862534 0.135168 0.0940947 0.13106 0.101563 0.126953 0.10903 0.122472 0.116498 0.116498 0.122472 0.10903 0.126953 0.101563 0.13106 0.0940947 0.135168 0.0862534 0.138155 0.079159 0.141889 0.0713178 0.144503 0.06385 0.147116 0.0563821 0.149357 0.0489143 0.151597 0.0414465 0.153091 0.0339786 0.154957 0.0261374 0.155704 0.0186696 0.156824 0.0115751 0.157571 0.00373392 0.157571 -0.00373392 0.157571 -0.0115751 0.157571 -0.0186696 0.156824 -0.0261374 0.155704 -0.0339786 0.154957 -0.0414465 0.153091 -0.0489143 0.151597 -0.0563821 0.149357 -0.06385 0.147116 -0.0713178 0.144503 -0.079159 0.141889 -0.0862534 0.138155 -0.0940947 0.135168 -0.101563 0.13106 -0.10903 0.126953 -0.116498 0.122472z"/>
  </g>
 </g>
</svg>
